<svg xmlns="http://www.w3.org/2000/svg" xmlns:xlink="http://www.w3.org/1999/xlink" style="display: none;">
    <!--! Icono de familia -->
    <symbol id="family" viewBox="0 0 500 500">
        <ellipse cx="316.215" cy="120.807" rx="39.707" ry="39.972" style="fill:#fff;stroke:#fff;stroke-width:6;stroke-miterlimit:10"/>
        <path d="M412.027 86.703C409.905 76.099 398.443 69.788 388 74.702c-7.134 3.357-10.593 11.49-9.097 19.273 5.236 27.243-6.171 53.711-27.099 69.122a20.802 20.802 0 0 1-12.31 4.039l-49.486.07c-7.697.011-14.933 3.416-20.126 9.135-16.999 18.722-43.563 27.414-69.41 20.26-8.139-2.253-17.031 1.197-20.6 8.897-4.54 9.794.78 20.9 10.666 23.737 29.632 8.506 59.969 2.968 84.032-12.639a1.25 1.25 0 0 1 1.939 1.05v207.329c0 9.215 6.492 17.45 15.553 18.761 11.289 1.633 20.971-7.139 20.971-18.187V324.922c0-1.4.819-2.751 2.145-3.174a3.197 3.197 0 0 1 4.22 3.039V425.55c0 10.153 8.176 18.384 18.262 18.384s18.262-8.231 18.262-18.384V204.294c0-2.2 1.174-4.255 3.107-5.281 39.39-20.917 62.228-66.185 52.998-112.31z" style="fill:#fff;stroke:#fff;stroke-width:6;stroke-miterlimit:10"/>
        <ellipse cx="316.215" cy="120.807" rx="39.707" ry="39.972"/>
        <path d="M412.027 86.703C409.905 76.099 398.443 69.788 388 74.702c-7.134 3.357-10.593 11.49-9.097 19.273 5.236 27.243-6.171 53.711-27.099 69.122a20.802 20.802 0 0 1-12.31 4.039l-49.486.07c-7.697.011-14.933 3.416-20.126 9.135-16.999 18.722-43.563 27.414-69.41 20.26-8.139-2.253-17.031 1.197-20.6 8.897-4.54 9.794.78 20.9 10.666 23.737 29.632 8.506 59.969 2.968 84.032-12.639a1.25 1.25 0 0 1 1.939 1.05v207.329c0 9.215 6.492 17.45 15.553 18.761 11.289 1.633 20.971-7.139 20.971-18.187V324.922c0-1.4.819-2.751 2.145-3.174a3.197 3.197 0 0 1 4.22 3.039V425.55c0 10.153 8.176 18.384 18.262 18.384s18.262-8.231 18.262-18.384V204.294c0-2.2 1.174-4.255 3.107-5.281 39.39-20.917 62.228-66.185 52.998-112.31z"/>
        <ellipse cx="188.087" cy="143.982" rx="36.859" ry="37.105" style="fill:none;stroke:#fff;stroke-width:6;stroke-miterlimit:10"/>
        <path d="m271.139 286.113-30.816-63.02-10.412-21.493c-3.971-8.198-12.239-13.399-21.299-13.399h-21.314l-7.582-.158c-11.595-.241-22.711-5.189-30.313-14.007-10.992-12.751-16.637-30.038-14.086-47.989 1.092-7.687-3.518-15.276-11.026-17.053-8.442-1.998-16.609 3.688-17.881 12.146-5.459 36.307 11.627 70.892 40.662 89.345 2.692 1.711 4.06 4.909 3.361 8.036l-26.857 120.271c-3.244 7.452 2.178 15.804 10.26 15.804h15.485c1.053 0 1.906.859 1.906 1.919v69.767c0 9.089 6.814 17.026 15.824 17.613 9.873.644 18.081-7.228 18.081-17.028v-70.843c0-.788.635-1.427 1.418-1.427h1.549c.783 0 1.418.639 1.418 1.427v70.843c0 9.425 7.59 17.065 16.952 17.065 9.362 0 16.952-7.64 16.952-17.065v-70.351c0-1.06.853-1.919 1.906-1.919h15.485c8.082 0 13.505-8.353 10.26-15.804l-27.662-88.458.089-.052 23.239 47.525c3.284 6.715 11.343 9.482 18.022 6.193l.37-.182c6.524-3.212 9.217-11.146 6.009-17.706z" style="fill:none;stroke:#fff;stroke-width:6;stroke-miterlimit:10"/>
        <ellipse cx="188.087" cy="143.982" rx="36.859" ry="37.105"/>
        <path d="m271.139 286.113-30.816-63.02-10.412-21.493c-3.971-8.198-12.239-13.399-21.299-13.399h-21.314l-7.582-.158c-11.595-.241-22.711-5.189-30.313-14.007-10.992-12.751-16.637-30.038-14.086-47.989 1.092-7.687-3.518-15.276-11.026-17.053-8.442-1.998-16.609 3.688-17.881 12.146-5.459 36.307 11.627 70.892 40.662 89.345 2.692 1.711 4.06 4.909 3.361 8.036l-26.857 120.271c-3.244 7.452 2.178 15.804 10.26 15.804h15.485c1.053 0 1.906.859 1.906 1.919v69.767c0 9.089 6.814 17.026 15.824 17.613 9.873.644 18.081-7.228 18.081-17.028v-70.843c0-.788.635-1.427 1.418-1.427h1.549c.783 0 1.418.639 1.418 1.427v70.843c0 9.425 7.59 17.065 16.952 17.065 9.362 0 16.952-7.64 16.952-17.065v-70.351c0-1.06.853-1.919 1.906-1.919h15.485c8.082 0 13.505-8.353 10.26-15.804l-27.662-88.458.089-.052 23.239 47.525c3.284 6.715 11.343 9.482 18.022 6.193l.37-.182c6.524-3.212 9.217-11.146 6.009-17.706z"/>
        <path d="M243.183 287.497c13.998 2.133 27.062-7.561 29.181-21.652 2.118-14.091-7.511-27.243-21.509-29.375-13.997-2.133-27.062 7.561-29.181 21.652-2.118 14.09 7.512 27.242 21.509 29.375z" style="fill:none;stroke:#fff;stroke-width:6;stroke-miterlimit:10"/>
        <path d="M302.18 247.511c-5.622-.856-10.868 3.036-11.719 8.695-3.468 23.064-24.928 38.988-47.84 35.497-22.911-3.491-38.729-25.094-35.262-48.158.851-5.659-3.016-10.94-8.638-11.797-5.621-.857-10.868 3.036-11.719 8.695-4.046 26.914 9.536 52.49 32.015 64.814l-16.368 75.89c-1.453 4.55 1.918 9.206 6.666 9.206h10.212v41.202c0 6.198 4.501 11.734 10.631 12.323 7.032.675 12.948-4.873 12.948-11.812v-39.724c0-1.098.885-1.989 1.976-1.989h.158c1.091 0 1.976.891 1.976 1.989v39.724c0 6.555 5.278 11.868 11.789 11.868s11.789-5.313 11.789-11.868v-41.713h10.07c4.748 0 8.119-4.656 6.666-9.206l-15.55-72.71c19.998-8.023 35.388-26.201 38.836-49.13.853-5.658-3.014-10.939-8.636-11.796z" style="fill:none;stroke:#fff;stroke-width:6;stroke-miterlimit:10"/>
        <path d="M243.183 287.497c13.998 2.133 27.062-7.561 29.181-21.652 2.118-14.091-7.511-27.243-21.509-29.375-13.997-2.133-27.062 7.561-29.181 21.652-2.118 14.09 7.512 27.242 21.509 29.375z"/>
        <path d="M302.18 247.511c-5.622-.856-10.868 3.036-11.719 8.695-3.468 23.064-24.928 38.988-47.84 35.497-22.911-3.491-38.729-25.094-35.262-48.158.851-5.659-3.016-10.94-8.638-11.797-5.621-.857-10.868 3.036-11.719 8.695-4.046 26.914 9.536 52.49 32.015 64.814l-16.368 75.89c-1.453 4.55 1.918 9.206 6.666 9.206h10.212v41.202c0 6.198 4.501 11.734 10.631 12.323 7.032.675 12.948-4.873 12.948-11.812v-39.724c0-1.098.885-1.989 1.976-1.989h.158c1.091 0 1.976.891 1.976 1.989v39.724c0 6.555 5.278 11.868 11.789 11.868s11.789-5.313 11.789-11.868v-41.713h10.07c4.748 0 8.119-4.656 6.666-9.206l-15.55-72.71c19.998-8.023 35.388-26.201 38.836-49.13.853-5.658-3.014-10.939-8.636-11.796z"/>
        <ellipse cx="387.527" cy="212.887" rx="32.559" ry="32.776" style="fill:none;stroke:#fff;stroke-width:6;stroke-miterlimit:10"/>
        <path d="M457.689 196.468c-7.12-1.214-13.869 3.612-15.075 10.78-4.914 29.213-32.521 48.955-61.54 44.008-29.02-4.947-48.631-32.738-43.717-61.95 1.206-7.168-3.589-13.961-10.709-15.175-7.12-1.214-13.869 3.612-15.075 10.78-5.862 34.848 11.713 68.319 41.14 84.069a19.538 19.538 0 0 0-.436 4.083V428.86c0 8.325 6.704 15.074 14.975 15.074 8.27 0 14.974-6.749 14.974-15.074v-58.565a2.619 2.619 0 0 1 2.61-2.627 2.619 2.619 0 0 1 2.61 2.627v58.565c0 8.634 7.21 15.572 15.9 15.046 7.752-.469 14.049-7.818 14.049-15.636V273.39c25.859-9.613 46.08-32.478 51.003-61.746 1.205-7.168-3.589-13.962-10.709-15.176z" style="fill:none;stroke:#fff;stroke-width:6;stroke-miterlimit:10"/>
        <ellipse cx="387.527" cy="212.887" rx="32.559" ry="32.776"/>
        <path d="M457.689 196.468c-7.12-1.214-13.869 3.612-15.075 10.78-4.914 29.213-32.521 48.955-61.54 44.008-29.02-4.947-48.631-32.738-43.717-61.95 1.206-7.168-3.589-13.961-10.709-15.175-7.12-1.214-13.869 3.612-15.075 10.78-5.862 34.848 11.713 68.319 41.14 84.069a19.538 19.538 0 0 0-.436 4.083V428.86c0 8.325 6.704 15.074 14.975 15.074 8.27 0 14.974-6.749 14.974-15.074v-58.565a2.619 2.619 0 0 1 2.61-2.627 2.619 2.619 0 0 1 2.61 2.627v58.565c0 8.634 7.21 15.572 15.9 15.046 7.752-.469 14.049-7.818 14.049-15.636V273.39c25.859-9.613 46.08-32.478 51.003-61.746 1.205-7.168-3.589-13.962-10.709-15.176z"/>
        <ellipse cx="103.63" cy="238.092" rx="29.007" ry="29.2" style="fill:none;stroke:#fff;stroke-width:6;stroke-miterlimit:10"/>
        <path d="M171.299 213.168c-1.074-6.386-7.087-10.685-13.43-9.604-6.344 1.081-10.615 7.134-9.541 13.52 4.378 26.026-13.094 50.785-38.948 55.192-25.853 4.407-50.449-13.181-54.826-39.207-1.074-6.386-7.087-10.685-13.43-9.604-6.344 1.081-10.615 7.134-9.541 13.52 4.386 26.075 22.401 46.446 45.439 55.01V429.98c0 6.965 5.61 13.512 12.517 13.93 7.742.469 14.165-5.713 14.165-13.405v-52.176a2.333 2.333 0 0 1 2.325-2.341 2.333 2.333 0 0 1 2.325 2.341v52.176c0 7.417 5.973 13.43 13.341 13.43 7.368 0 13.341-6.013 13.341-13.43V291.703c0-1.249-.139-2.464-.389-3.637 26.216-14.032 41.874-43.852 36.652-74.898z" style="fill:none;stroke:#fff;stroke-width:6;stroke-miterlimit:10"/>
        <ellipse cx="103.63" cy="238.092" rx="29.007" ry="29.2"/>
        <path d="M171.299 213.168c-1.074-6.386-7.087-10.685-13.43-9.604-6.344 1.081-10.615 7.134-9.541 13.52 4.378 26.026-13.094 50.785-38.948 55.192-25.853 4.407-50.449-13.181-54.826-39.207-1.074-6.386-7.087-10.685-13.43-9.604-6.344 1.081-10.615 7.134-9.541 13.52 4.386 26.075 22.401 46.446 45.439 55.01V429.98c0 6.965 5.61 13.512 12.517 13.93 7.742.469 14.165-5.713 14.165-13.405v-52.176a2.333 2.333 0 0 1 2.325-2.341 2.333 2.333 0 0 1 2.325 2.341v52.176c0 7.417 5.973 13.43 13.341 13.43 7.368 0 13.341-6.013 13.341-13.43V291.703c0-1.249-.139-2.464-.389-3.637 26.216-14.032 41.874-43.852 36.652-74.898zM244.863 64.545c-.117-.175-.233-.382-.381-.564-.92-1.127-1.76-2.335-2.785-3.358-5.281-5.27-12.898-6.049-18.967-1.919-4.741 3.226-7.208 7.832-7.784 13.479-.384 3.764.336 7.374 1.73 10.862 1.839 4.598 4.678 8.539 8.065 12.103 5.78 6.082 12.652 10.692 19.96 14.704.121.066.347.045.476-.025 5.875-3.212 11.459-6.851 16.464-11.326 3.962-3.543 7.449-7.484 9.987-12.191 2.496-4.632 3.88-9.526 3.187-14.836-.662-5.071-2.944-9.27-7.084-12.333-3.471-2.568-7.377-3.588-11.668-2.798-3.449.635-6.276 2.409-8.609 4.977-.916 1.007-1.712 2.123-2.591 3.225z"/>
        <path d="M244.863 64.545c.879-1.102 1.675-2.218 2.59-3.226 2.332-2.568 5.16-4.342 8.609-4.977 4.291-.79 8.197.23 11.668 2.798 4.141 3.063 6.422 7.262 7.084 12.333.693 5.31-.69 10.204-3.187 14.836-2.537 4.708-6.025 8.648-9.987 12.191-5.005 4.475-10.589 8.115-16.464 11.326-.128.07-.355.091-.476.025-7.308-4.012-14.18-8.622-19.96-14.704-3.387-3.564-6.226-7.505-8.065-12.103-1.395-3.488-2.114-7.098-1.73-10.862.576-5.647 3.042-10.253 7.784-13.479 6.069-4.13 13.686-3.351 18.967 1.919 1.025 1.023 1.866 2.231 2.785 3.358.149.183.265.39.382.565z"/>

</svg>